<svg width="151" height="150" viewBox="0 0 151 150" fill="none" xmlns="http://www.w3.org/2000/svg">
<path opacity="0.4" d="M75.5 137.5C110.018 137.5 138 109.518 138 75C138 40.4822 110.018 12.5 75.5 12.5C40.9822 12.5 13 40.4822 13 75C13 109.518 40.9822 137.5 75.5 137.5Z" fill="#795547"/>
<path d="M98.6875 99.5625C97.875 99.5625 97.0625 99.375 96.3125 98.875L76.9375 87.3125C72.125 84.4375 68.5625 78.125 68.5625 72.5625V46.9375C68.5625 44.375 70.6875 42.25 73.25 42.25C75.8125 42.25 77.9375 44.375 77.9375 46.9375V72.5625C77.9375 74.8125 79.8125 78.125 81.75 79.25L101.125 90.8125C103.375 92.125 104.062 95 102.75 97.25C101.812 98.75 100.25 99.5625 98.6875 99.5625Z" fill="#795547"/>
</svg>
