<svg width="24" height="24" viewBox="0 0 24 24" fill="none" xmlns="http://www.w3.org/2000/svg">
<path d="M19 5.25C19.4142 5.25 19.75 5.58579 19.75 6C19.75 6.41421 19.4142 6.75 19 6.75H5C4.58579 6.75 4.25 6.41421 4.25 6C4.25 5.58579 4.58579 5.25 5 5.25H19Z" fill="#795547"/>
<path d="M19 11.25C19.4142 11.25 19.75 11.5858 19.75 12C19.75 12.4142 19.4142 12.75 19 12.75H13C12.5858 12.75 12.25 12.4142 12.25 12C12.25 11.5858 12.5858 11.25 13 11.25H19Z" fill="#795547"/>
<path d="M19 17.25C19.4142 17.25 19.75 17.5858 19.75 18C19.75 18.4142 19.4142 18.75 19 18.75H16C15.5858 18.75 15.25 18.4142 15.25 18C15.25 17.5858 15.5858 17.25 16 17.25H19Z" fill="#795547"/>
</svg>
