<svg width="24" height="24" viewBox="0 0 24 24" fill="none" xmlns="http://www.w3.org/2000/svg">
<path d="M3 16H7C7 14.6739 7.52678 13.4021 8.46447 12.4645C9.40215 11.5268 10.6739 11 12 11C13.3261 11 14.5979 11.5268 15.5355 12.4645C16.4732 13.4021 17 14.6739 17 16H21C21.2652 16 21.5196 16.1054 21.7071 16.2929C21.8946 16.4804 22 16.7348 22 17C22 17.2652 21.8946 17.5196 21.7071 17.7071C21.5196 17.8946 21.2652 18 21 18H3C2.73478 18 2.48043 17.8946 2.29289 17.7071C2.10536 17.5196 2 17.2652 2 17C2 16.7348 2.10536 16.4804 2.29289 16.2929C2.48043 16.1054 2.73478 16 3 16ZM15 16C15 15.2044 14.6839 14.4413 14.1213 13.8787C13.5587 13.3161 12.7956 13 12 13C11.2044 13 10.4413 13.3161 9.87868 13.8787C9.31607 14.4413 9 15.2044 9 16H15ZM12 6L14.39 9.42C13.65 9.15 12.84 9 12 9C11.16 9 10.35 9.15 9.61 9.42L12 6ZM3.34 11L7.5 10.65C6.87935 11.1742 6.3519 11.7997 5.94 12.5C5.5 13.24 5.25 14 5.11 14.79L3.34 11ZM20.65 11L18.88 14.79C18.5968 13.1708 17.7546 11.7022 16.5 10.64L20.65 11Z" fill="#A2A2A2"/>
</svg>
