<svg width="24" height="24" viewBox="0 0 24 24" fill="none" xmlns="http://www.w3.org/2000/svg">
<g clip-path="url(#clip0_1_273)">
<path d="M12 7.18136C13.0533 7.18121 14.0881 7.45834 15.0003 7.98489C15.9125 8.51144 16.6701 9.26885 17.1968 10.181C17.7235 11.0931 18.0008 12.1279 18.0008 13.1811C18.0009 14.2344 17.7236 15.2692 17.197 16.1814H20C20.2652 16.1814 20.5196 16.2867 20.7071 16.4743C20.8946 16.6618 21 16.9161 21 17.1814C21 17.4466 20.8946 17.7009 20.7071 17.8885C20.5196 18.076 20.2652 18.1814 20 18.1814H3.99999C3.73477 18.1814 3.48042 18.076 3.29288 17.8885C3.10535 17.7009 2.99999 17.4466 2.99999 17.1814C2.99999 16.9161 3.10535 16.6618 3.29288 16.4743C3.48042 16.2867 3.73477 16.1814 3.99999 16.1814H6.80299C6.27634 15.2692 5.99911 14.2344 5.99914 13.1811C5.99918 12.1279 6.27649 11.0931 6.8032 10.181C7.32991 9.26885 8.08746 8.51144 8.99969 7.98489C9.91193 7.45834 10.9467 7.18121 12 7.18136ZM12 9.18136C11.2064 9.1813 10.4306 9.41733 9.77153 9.85942C9.11243 10.3015 8.59973 10.9297 8.29867 11.664C7.99761 12.3983 7.92179 13.2056 8.08087 13.9831C8.23995 14.7606 8.62672 15.4733 9.19199 16.0304L9.35499 16.1804H14.645C15.2539 15.6429 15.6848 14.9328 15.8804 14.1445C16.076 13.3562 16.0269 12.5271 15.7398 11.7673C15.4527 11.0076 14.9411 10.3532 14.2731 9.89129C13.605 9.42936 12.8122 9.18174 12 9.18136ZM21 12.1814C21.2549 12.1816 21.5 12.2792 21.6854 12.4542C21.8707 12.6292 21.9822 12.8683 21.9972 13.1228C22.0121 13.3772 21.9293 13.6277 21.7657 13.8232C21.6021 14.0186 21.3701 14.1443 21.117 14.1744L21 14.1814H20C19.7451 14.1811 19.5 14.0835 19.3146 13.9085C19.1293 13.7335 19.0178 13.4944 19.0028 13.24C18.9879 12.9855 19.0707 12.735 19.2343 12.5395C19.3978 12.3441 19.6299 12.2185 19.883 12.1884L20 12.1814H21ZM3.99999 12.1814C4.25487 12.1816 4.50002 12.2792 4.68536 12.4542C4.8707 12.6292 4.98223 12.8683 4.99716 13.1228C5.0121 13.3772 4.92932 13.6277 4.76573 13.8232C4.60214 14.0186 4.37009 14.1443 4.11699 14.1744L3.99999 14.1814H2.99999C2.74511 14.1811 2.49996 14.0835 2.31462 13.9085C2.12929 13.7335 2.01776 13.4944 2.00282 13.24C1.98788 12.9855 2.07067 12.735 2.23426 12.5395C2.39785 12.3441 2.62989 12.2185 2.88299 12.1884L2.99999 12.1814H3.99999ZM6.34299 6.11036L7.04999 6.81736C7.23215 7.00596 7.33294 7.25856 7.33067 7.52076C7.32839 7.78296 7.22322 8.03377 7.03781 8.21918C6.8524 8.40459 6.60159 8.50976 6.33939 8.51203C6.0772 8.51431 5.82459 8.41352 5.63599 8.23136L4.92899 7.52436C4.74683 7.33576 4.64604 7.08315 4.64832 6.82096C4.65059 6.55876 4.75576 6.30795 4.94117 6.12254C5.12658 5.93713 5.37739 5.83196 5.63959 5.82969C5.90179 5.82741 6.15439 5.9282 6.34299 6.11036ZM17.657 6.11036C17.8369 5.93101 18.0784 5.82689 18.3324 5.81913C18.5863 5.81138 18.8337 5.90057 19.0243 6.06861C19.2148 6.23664 19.3343 6.47091 19.3584 6.72383C19.3825 6.97676 19.3094 7.22937 19.154 7.43036L19.071 7.52436L18.364 8.23136C18.184 8.41071 17.9426 8.51483 17.6886 8.52259C17.4347 8.53034 17.1873 8.44114 16.9967 8.27311C16.8061 8.10508 16.6867 7.87081 16.6626 7.61788C16.6385 7.36496 16.7116 7.11235 16.867 6.91136L16.95 6.81736L17.657 6.11036Z" fill="#A2A2A2"/>
<path d="M11.2718 3.28304C11.0977 3.46809 11.0006 3.71247 11.0002 3.96654L11.0002 4.96639L11.008 5.09154C11.0402 5.34356 11.1671 5.57386 11.363 5.73567C11.5589 5.89747 11.809 5.97865 12.0626 5.96272C12.3162 5.94679 12.5542 5.83494 12.7282 5.64989C12.9023 5.46483 12.9994 5.22046 12.9999 4.96639L12.9999 3.96654L12.9921 3.84138C12.9599 3.58937 12.8329 3.35907 12.637 3.19726C12.4412 3.03545 12.191 2.95427 11.9375 2.9702C11.6839 2.98614 11.4459 3.09799 11.2718 3.28304Z" fill="#A2A2A2"/>
</g>
<defs>
<clipPath id="clip0_1_273">
<rect width="24" height="24" fill="white"/>
</clipPath>
</defs>
</svg>
