<svg width="21" height="22" viewBox="0 0 21 22" fill="none" xmlns="http://www.w3.org/2000/svg">
<path d="M12.7969 6.0781C12.287 6.07815 11.7788 6.13733 11.2826 6.25447C11.135 6.0388 10.9704 5.83527 10.7904 5.64579L11.4114 4.75822C11.5612 4.54435 11.6199 4.27975 11.5746 4.02261C11.5293 3.76547 11.3837 3.53685 11.1698 3.38706C10.9559 3.23727 10.6913 3.17857 10.4342 3.22388C10.177 3.26918 9.94843 3.41478 9.79864 3.62865L9.17684 4.5195C8.6001 4.26697 7.98017 4.12772 7.35083 4.10935L7.16215 3.04294C7.11227 2.79018 6.96529 2.56705 6.75275 2.42144C6.54021 2.27583 6.27905 2.21935 6.02533 2.26413C5.77162 2.3089 5.54557 2.45136 5.39571 2.66092C5.24584 2.87048 5.18411 3.13045 5.22375 3.38501L5.41243 4.45142C4.82747 4.68389 4.29253 5.0264 3.83661 5.4604L2.94575 4.83615C2.73189 4.68635 2.46728 4.62766 2.21014 4.67296C1.953 4.71827 1.72439 4.86387 1.57459 5.07773C1.4248 5.29159 1.36611 5.5562 1.41141 5.81334C1.45672 6.07048 1.60231 6.29909 1.81618 6.44888L2.70704 7.0715C2.45381 7.64773 2.31453 8.26753 2.29688 8.89669L1.23047 9.08536C0.987858 9.12787 0.769992 9.25978 0.619882 9.45506C0.469772 9.65035 0.398328 9.89481 0.419653 10.1402C0.440977 10.3856 0.55352 10.6141 0.735066 10.7805C0.916612 10.947 1.15397 11.0393 1.40028 11.0393C1.45801 11.0392 1.51564 11.0343 1.57254 11.0246L2.63895 10.8359C2.71947 11.0403 2.81375 11.239 2.92114 11.4306C2.29837 12.0804 1.88018 12.8987 1.71849 13.7841C1.55681 14.6695 1.65876 15.5828 2.01169 16.4107C2.36461 17.2386 2.95296 17.9447 3.70367 18.4411C4.45438 18.9375 5.33438 19.2025 6.23438 19.2031H12.7969C14.5374 19.2031 16.2066 18.5117 17.4373 17.281C18.668 16.0503 19.3594 14.3811 19.3594 12.6406C19.3594 10.9001 18.668 9.23092 17.4373 8.00021C16.2066 6.7695 14.5374 6.0781 12.7969 6.0781ZM7.21876 6.0781C7.62657 6.07842 8.0299 6.16322 8.40333 6.32713C8.77676 6.49104 9.11219 6.73052 9.38848 7.03048C8.22076 7.73871 7.3018 8.79211 6.75856 10.0451C6.58453 10.0254 6.40952 10.0155 6.23438 10.0156C5.66377 10.0155 5.09816 10.1221 4.56668 10.3298C4.34627 9.87957 4.24407 9.38067 4.26973 8.88005C4.29539 8.37944 4.44806 7.8936 4.71336 7.46829C4.97865 7.04298 5.34785 6.6922 5.78616 6.44898C6.22448 6.20577 6.71749 6.07814 7.21876 6.0781ZM12.7969 17.2343H6.23438C5.53819 17.2343 4.87051 16.9578 4.37822 16.4655C3.88594 15.9732 3.60938 15.3055 3.60938 14.6093C3.60938 13.9132 3.88594 13.2455 4.37822 12.7532C4.87051 12.2609 5.53819 11.9843 6.23438 11.9843H6.25735C6.24833 12.0746 6.24094 12.1648 6.23602 12.2551C6.22079 12.5161 6.3099 12.7726 6.48373 12.9679C6.65757 13.1633 6.9019 13.2816 7.16297 13.2968C7.42405 13.3121 7.68048 13.223 7.87585 13.0491C8.07123 12.8753 8.18954 12.631 8.20477 12.3699C8.22213 12.0651 8.26995 11.7628 8.34751 11.4676L8.35981 11.4224C8.58598 10.5956 9.03877 9.84835 9.66708 9.26515C10.2954 8.68196 11.0742 8.28601 11.9156 8.12197C12.757 7.95794 13.6276 8.03237 14.4289 8.33685C15.2303 8.64133 15.9306 9.16374 16.4508 9.84512C16.971 10.5265 17.2903 11.3397 17.3729 12.193C17.4554 13.0463 17.2978 13.9056 16.9178 14.6741C16.5378 15.4425 15.9506 16.0894 15.2224 16.5418C14.4943 16.9942 13.6541 17.2341 12.7969 17.2343Z" fill="#A2A2A2"/>
</svg>
