<svg width="20" height="20" viewBox="0 0 20 20" fill="none" xmlns="http://www.w3.org/2000/svg">
<g clip-path="url(#clip0_1_257)">
<path d="M9.0625 2.5V1.25C9.0625 1.00136 9.16127 0.762903 9.33709 0.587087C9.5129 0.411272 9.75136 0.3125 10 0.3125C10.2486 0.3125 10.4871 0.411272 10.6629 0.587087C10.8387 0.762903 10.9375 1.00136 10.9375 1.25V2.5C10.9375 2.74864 10.8387 2.9871 10.6629 3.16291C10.4871 3.33873 10.2486 3.4375 10 3.4375C9.75136 3.4375 9.5129 3.33873 9.33709 3.16291C9.16127 2.9871 9.0625 2.74864 9.0625 2.5ZM15.3125 10C15.3125 11.0507 15.0009 12.0778 14.4172 12.9515C13.8334 13.8251 13.0037 14.506 12.033 14.9081C11.0623 15.3102 9.99411 15.4154 8.96358 15.2104C7.93306 15.0054 6.98646 14.4995 6.2435 13.7565C5.50053 13.0135 4.99456 12.0669 4.78958 11.0364C4.58459 10.0059 4.6898 8.93773 5.09189 7.96699C5.49398 6.99626 6.1749 6.16656 7.04853 5.58282C7.92217 4.99907 8.94929 4.6875 10 4.6875C11.4085 4.68895 12.7589 5.24912 13.7549 6.24509C14.7509 7.24107 15.3111 8.59148 15.3125 10ZM13.4375 10C13.4375 9.32013 13.2359 8.65552 12.8582 8.09023C12.4805 7.52493 11.9436 7.08434 11.3155 6.82416C10.6874 6.56399 9.99619 6.49591 9.32938 6.62855C8.66257 6.76119 8.05006 7.08858 7.56932 7.56932C7.08858 8.05006 6.76119 8.66257 6.62855 9.32938C6.49591 9.99619 6.56399 10.6874 6.82416 11.3155C7.08434 11.9436 7.52493 12.4805 8.09023 12.8582C8.65552 13.2359 9.32013 13.4375 10 13.4375C10.9114 13.4365 11.7851 13.074 12.4295 12.4295C13.074 11.7851 13.4365 10.9114 13.4375 10ZM4.02422 5.35078C4.11142 5.43799 4.21495 5.50716 4.32889 5.55436C4.44283 5.60155 4.56495 5.62585 4.68828 5.62585C4.81161 5.62585 4.93373 5.60155 5.04767 5.55436C5.16161 5.50716 5.26514 5.43799 5.35234 5.35078C5.43955 5.26358 5.50873 5.16005 5.55592 5.04611C5.60312 4.93217 5.62741 4.81005 5.62741 4.68672C5.62741 4.56339 5.60312 4.44127 5.55592 4.32733C5.50873 4.21339 5.43955 4.10986 5.35234 4.02266L4.41484 3.08516C4.23872 2.90904 3.99985 2.81009 3.75078 2.81009C3.50171 2.81009 3.26284 2.90904 3.08672 3.08516C2.9106 3.26128 2.81166 3.50015 2.81166 3.74922C2.81166 3.99829 2.9106 4.23716 3.08672 4.41328L4.02422 5.35078ZM4.02422 14.6477L3.08672 15.5852C2.99951 15.6724 2.93034 15.7759 2.88314 15.8898C2.83595 16.0038 2.81166 16.1259 2.81166 16.2492C2.81166 16.3725 2.83595 16.4947 2.88314 16.6086C2.93034 16.7225 2.99951 16.8261 3.08672 16.9133C3.26284 17.0894 3.50171 17.1883 3.75078 17.1883C3.87411 17.1883 3.99623 17.1641 4.11017 17.1169C4.22411 17.0697 4.32764 17.0005 4.41484 16.9133L5.35234 15.9758C5.52846 15.7997 5.62741 15.5608 5.62741 15.3117C5.62741 15.0626 5.52846 14.8238 5.35234 14.6477C5.17622 14.4715 4.93735 14.3726 4.68828 14.3726C4.43921 14.3726 4.20034 14.4715 4.02422 14.6477ZM15.3125 5.625C15.4357 5.6251 15.5576 5.60093 15.6714 5.55388C15.7852 5.50683 15.8887 5.43781 15.9758 5.35078L16.9133 4.41328C17.0005 4.32608 17.0697 4.22255 17.1169 4.10861C17.1641 3.99467 17.1883 3.87255 17.1883 3.74922C17.1883 3.62589 17.1641 3.50377 17.1169 3.38983C17.0697 3.27589 17.0005 3.17236 16.9133 3.08516C16.8261 2.99795 16.7225 2.92877 16.6086 2.88158C16.4947 2.83438 16.3725 2.81009 16.2492 2.81009C16.1259 2.81009 16.0038 2.83438 15.8898 2.88158C15.7759 2.92877 15.6724 2.99795 15.5852 3.08516L14.6477 4.02266C14.5158 4.15378 14.4258 4.32117 14.3894 4.50354C14.3529 4.68591 14.3714 4.87501 14.4427 5.0468C14.514 5.21858 14.6347 5.36528 14.7896 5.46824C14.9445 5.5712 15.1265 5.62577 15.3125 5.625ZM15.9758 14.6492C15.7997 14.4731 15.5608 14.3742 15.3117 14.3742C15.0626 14.3742 14.8238 14.4731 14.6477 14.6492C14.4715 14.8253 14.3726 15.0642 14.3726 15.3133C14.3726 15.5624 14.4715 15.8012 14.6477 15.9773L15.5852 16.9148C15.7613 17.091 16.0001 17.1899 16.2492 17.1899C16.4983 17.1899 16.7372 17.091 16.9133 16.9148C17.0894 16.7387 17.1883 16.4999 17.1883 16.2508C17.1883 16.0017 17.0894 15.7628 16.9133 15.5867L15.9758 14.6492ZM3.4375 10C3.4375 9.75136 3.33873 9.5129 3.16291 9.33709C2.9871 9.16127 2.74864 9.0625 2.5 9.0625H1.25C1.00136 9.0625 0.762903 9.16127 0.587087 9.33709C0.411272 9.5129 0.3125 9.75136 0.3125 10C0.3125 10.2486 0.411272 10.4871 0.587087 10.6629C0.762903 10.8387 1.00136 10.9375 1.25 10.9375H2.5C2.74864 10.9375 2.9871 10.8387 3.16291 10.6629C3.33873 10.4871 3.4375 10.2486 3.4375 10ZM10 16.5625C9.75136 16.5625 9.5129 16.6613 9.33709 16.8371C9.16127 17.0129 9.0625 17.2514 9.0625 17.5V18.75C9.0625 18.9986 9.16127 19.2371 9.33709 19.4129C9.5129 19.5887 9.75136 19.6875 10 19.6875C10.2486 19.6875 10.4871 19.5887 10.6629 19.4129C10.8387 19.2371 10.9375 18.9986 10.9375 18.75V17.5C10.9375 17.2514 10.8387 17.0129 10.6629 16.8371C10.4871 16.6613 10.2486 16.5625 10 16.5625ZM18.75 9.0625H17.5C17.2514 9.0625 17.0129 9.16127 16.8371 9.33709C16.6613 9.5129 16.5625 9.75136 16.5625 10C16.5625 10.2486 16.6613 10.4871 16.8371 10.6629C17.0129 10.8387 17.2514 10.9375 17.5 10.9375H18.75C18.9986 10.9375 19.2371 10.8387 19.4129 10.6629C19.5887 10.4871 19.6875 10.2486 19.6875 10C19.6875 9.75136 19.5887 9.5129 19.4129 9.33709C19.2371 9.16127 18.9986 9.0625 18.75 9.0625Z" fill="#A2A2A2"/>
</g>
<defs>
<clipPath id="clip0_1_257">
<rect width="20" height="20" fill="white"/>
</clipPath>
</defs>
</svg>
