<svg width="22" height="22" viewBox="0 0 22 22" fill="none" xmlns="http://www.w3.org/2000/svg">
<path fill-rule="evenodd" clip-rule="evenodd" d="M4.25333 0.733334C4.25333 0.57774 4.19152 0.42852 4.0815 0.318498C3.97148 0.208477 3.82226 0.146667 3.66667 0.146667C3.51107 0.146667 3.36185 0.208477 3.25183 0.318498C3.14181 0.42852 3.08 0.57774 3.08 0.733334V1.61333H2.2C2.04441 1.61333 1.89519 1.67514 1.78516 1.78516C1.67514 1.89519 1.61333 2.04441 1.61333 2.2C1.61333 2.35559 1.67514 2.50482 1.78516 2.61484C1.89519 2.72486 2.04441 2.78667 2.2 2.78667H3.08V3.66667C3.08 3.74371 3.09518 3.82 3.12466 3.89118C3.15414 3.96235 3.19735 4.02703 3.25183 4.0815C3.30631 4.13598 3.37098 4.17919 3.44216 4.20868C3.51334 4.23816 3.58963 4.25333 3.66667 4.25333C3.74371 4.25333 3.82 4.23816 3.89118 4.20868C3.96235 4.17919 4.02703 4.13598 4.0815 4.0815C4.13598 4.02703 4.17919 3.96235 4.20868 3.89118C4.23816 3.82 4.25333 3.74371 4.25333 3.66667V2.78667H5.13333C5.28893 2.78667 5.43815 2.72486 5.54817 2.61484C5.65819 2.50482 5.72 2.35559 5.72 2.2C5.72 2.04441 5.65819 1.89519 5.54817 1.78516C5.43815 1.67514 5.28893 1.61333 5.13333 1.61333H4.25333V0.733334ZM8.65333 5.13333C8.65333 5.05629 8.63816 4.98 8.60868 4.90883C8.57919 4.83765 8.53598 4.77298 8.4815 4.7185C8.42703 4.66402 8.36235 4.62081 8.29117 4.59132C8.22 4.56184 8.14371 4.54667 8.06667 4.54667C7.98962 4.54667 7.91334 4.56184 7.84216 4.59132C7.77098 4.62081 7.70631 4.66402 7.65183 4.7185C7.59735 4.77298 7.55414 4.83765 7.52466 4.90883C7.49518 4.98 7.48 5.05629 7.48 5.13333V6.01333H6.6C6.52296 6.01333 6.44667 6.02851 6.37549 6.05799C6.30432 6.08747 6.23964 6.13069 6.18516 6.18517C6.13069 6.23964 6.08747 6.30432 6.05799 6.37549C6.02851 6.44667 6.01333 6.52296 6.01333 6.6C6.01333 6.67704 6.02851 6.75333 6.05799 6.82451C6.08747 6.89569 6.13069 6.96036 6.18516 7.01484C6.23964 7.06931 6.30432 7.11253 6.37549 7.14201C6.44667 7.17149 6.52296 7.18667 6.6 7.18667H7.48V8.06667C7.48 8.14371 7.49518 8.22 7.52466 8.29117C7.55414 8.36235 7.59735 8.42703 7.65183 8.4815C7.70631 8.53598 7.77098 8.57919 7.84216 8.60868C7.91334 8.63816 7.98962 8.65333 8.06667 8.65333C8.14371 8.65333 8.22 8.63816 8.29117 8.60868C8.36235 8.57919 8.42703 8.53598 8.4815 8.4815C8.53598 8.42703 8.57919 8.36235 8.60868 8.29117C8.63816 8.22 8.65333 8.14371 8.65333 8.06667V7.18667H9.53333C9.68893 7.18667 9.83815 7.12486 9.94817 7.01484C10.0582 6.90482 10.12 6.75559 10.12 6.6C10.12 6.44441 10.0582 6.29519 9.94817 6.18517C9.83815 6.07514 9.68893 6.01333 9.53333 6.01333H8.65333V5.13333ZM2.78667 9.53333C2.78667 9.37774 2.72486 9.22852 2.61484 9.1185C2.50482 9.00848 2.35559 8.94667 2.2 8.94667C2.04441 8.94667 1.89519 9.00848 1.78516 9.1185C1.67514 9.22852 1.61333 9.37774 1.61333 9.53333V10.4133H0.733334C0.57774 10.4133 0.428519 10.4751 0.318498 10.5852C0.208477 10.6952 0.146667 10.8444 0.146667 11C0.146667 11.1556 0.208477 11.3048 0.318498 11.4148C0.428519 11.5249 0.57774 11.5867 0.733334 11.5867H1.61333V12.4667C1.61333 12.6223 1.67514 12.7715 1.78516 12.8815C1.89519 12.9915 2.04441 13.0533 2.2 13.0533C2.35559 13.0533 2.50482 12.9915 2.61484 12.8815C2.72486 12.7715 2.78667 12.6223 2.78667 12.4667V11.5867H3.66667C3.82226 11.5867 3.97148 11.5249 4.0815 11.4148C4.19152 11.3048 4.25333 11.1556 4.25333 11C4.25333 10.8444 4.19152 10.6952 4.0815 10.5852C3.97148 10.4751 3.82226 10.4133 3.66667 10.4133H2.78667V9.53333ZM12.5312 1.44027L12.0941 1.3816C11.7817 1.3464 11.5955 1.71013 11.7759 1.96827C12.8998 3.5863 13.5007 5.50994 13.4977 7.48C13.4969 9.95636 12.5473 12.3383 10.8442 14.136C9.14116 15.9338 6.81403 17.0107 4.34133 17.1453C4.02747 17.1629 3.85293 17.5325 4.07293 17.7569C4.17341 17.8599 4.2761 17.9606 4.38093 18.0591L4.48653 18.1559L4.86787 18.4873L5.1436 18.7044L5.32107 18.8364L5.59533 19.0285L5.85347 19.1972C6.02947 19.3087 6.21133 19.4157 6.39613 19.5155L6.78333 19.7135L7.16467 19.8895L7.60907 20.0684L7.96693 20.1945C8.49419 20.368 9.03544 20.4956 9.58467 20.5759L10.0496 20.6345L10.4412 20.6639C11.849 20.746 13.2578 20.5196 14.569 20.0004C15.8802 19.4812 17.0621 18.6817 18.0321 17.658C19.002 16.6343 19.7365 15.411 20.1843 14.0737C20.6321 12.7365 20.7822 11.3175 20.6243 9.91613L20.57 9.50987C20.4604 8.79921 20.2715 8.10308 20.0068 7.43453L19.8411 7.04147L19.7281 6.798L19.6196 6.58093C19.3871 6.12889 19.1193 5.69587 18.8188 5.28587L18.5944 4.99253L18.3025 4.64053L18.0635 4.37653L17.8875 4.19467L17.6528 3.96293L17.3257 3.6696L16.8564 3.28827L16.4971 3.02867L16.0688 2.75L15.598 2.4772L15.1169 2.2352L14.9512 2.15893L14.5992 2.0108L14.1944 1.85827L13.8248 1.738L13.3481 1.606L12.9595 1.518L12.5312 1.44027ZM15.2592 7.77333C15.2603 6.31719 14.9753 4.87503 14.4203 3.5288C16.3936 4.45225 17.9192 6.12177 18.6616 8.1701C19.404 10.2184 19.3022 12.4777 18.3788 14.4511C17.4554 16.4244 15.7858 17.95 13.7375 18.6924C11.6892 19.4348 9.42985 19.333 7.45653 18.4096C9.57188 17.7431 11.4407 16.4615 12.8245 14.7283C12.961 14.9162 13.1535 15.056 13.3744 15.1276C13.5953 15.1993 13.8332 15.1991 14.054 15.127C14.2748 15.055 14.4671 14.9149 14.6032 14.7268C14.7394 14.5387 14.8124 14.3122 14.8119 14.08C14.8121 13.8304 14.7274 13.5882 14.5717 13.3931C14.4161 13.198 14.1987 13.0616 13.9553 13.0064C14.0463 12.8363 14.1343 12.6617 14.2164 12.4857C14.4576 12.635 14.7301 12.7262 15.0125 12.7522C15.2949 12.7783 15.5795 12.7385 15.8439 12.6359C16.1084 12.5334 16.3454 12.3709 16.5363 12.1612C16.7273 11.9515 16.8671 11.7004 16.9446 11.4276C17.022 11.1548 17.0352 10.8677 16.9829 10.589C16.9307 10.3102 16.8145 10.0474 16.6435 9.82112C16.4725 9.59488 16.2513 9.4114 15.9973 9.28512C15.7434 9.15883 15.4636 9.09318 15.18 9.09333C15.2299 8.66067 15.2563 8.22067 15.2563 7.77333H15.2592Z" fill="#A2A2A2"/>
</svg>
